<svg width="1600" height="1200" viewBox="0 0 1600 1200" fill="none" xmlns="http://www.w3.org/2000/svg">
  <defs>
    <linearGradient id="bg" x1="132" y1="90" x2="1450" y2="1100" gradientUnits="userSpaceOnUse">
      <stop stop-color="#F6EFE3"/>
      <stop offset="0.58" stop-color="#E6D9C9"/>
      <stop offset="1" stop-color="#D1BEA8"/>
    </linearGradient>
    <linearGradient id="table" x1="0" y1="0" x2="1" y2="1">
      <stop stop-color="#FBF7F2"/>
      <stop offset="1" stop-color="#D9C8B5"/>
    </linearGradient>
    <linearGradient id="speaker" x1="0" y1="0" x2="1" y2="1">
      <stop stop-color="#F7F1E8"/>
      <stop offset="1" stop-color="#DDCCB7"/>
    </linearGradient>
  </defs>
  <rect width="1600" height="1200" rx="60" fill="url(#bg)"/>
  <circle cx="1276" cy="248" r="170" fill="#F8F3EB" fill-opacity="0.48"/>
  <circle cx="276" cy="238" r="144" fill="#FFFFFF" fill-opacity="0.36"/>
  <rect x="216" y="706" width="1168" height="272" rx="54" fill="url(#table)"/>
  <rect x="304" y="536" width="202" height="240" rx="40" fill="url(#speaker)"/>
  <circle cx="404" cy="656" r="58" fill="#6C8092"/>
  <circle cx="404" cy="656" r="22" fill="#F7F2EA"/>
  <circle cx="404" cy="590" r="18" fill="#E5D7C5"/>
  <rect x="636" y="484" width="240" height="308" rx="70" fill="#5B7083"/>
  <rect x="706" y="544" width="100" height="186" rx="28" fill="#F7F2EB"/>
  <circle cx="756" cy="510" r="24" fill="#F1E5D6"/>
  <rect x="1024" y="432" width="226" height="344" rx="40" fill="#EEE0CE"/>
  <rect x="1060" y="474" width="154" height="250" rx="24" fill="#FAF6EF"/>
  <path d="M1100 522H1176" stroke="#C99E66" stroke-width="12" stroke-linecap="round"/>
  <path d="M1100 574H1192" stroke="#DCCBB8" stroke-width="12" stroke-linecap="round"/>
  <path d="M1100 626H1160" stroke="#DCCBB8" stroke-width="12" stroke-linecap="round"/>
  <rect x="930" y="772" width="338" height="44" rx="22" fill="#EFE3D2"/>
  <path d="M244 404C334 334 494 338 580 416" stroke="#ECCB9D" stroke-width="22" stroke-linecap="round"/>
  <path d="M1108 324C1172 274 1284 288 1334 364" stroke="#F8F1E3" stroke-width="20" stroke-linecap="round"/>
</svg>
